<mxfile host="app.diagrams.net" modified="2023-07-26T04:17:25.047Z" agent="Mozilla/5.0 (Macintosh; Intel Mac OS X 10_15_7) AppleWebKit/537.36 (KHTML, like Gecko) Chrome/114.0.0.0 Safari/537.36" version="21.6.5" etag="cQI5E3CZ3Xu9mPNqD8Yb" type="github">
  <diagram name="Page-1" id="ACqDx4_HPTWX5pm9WOOB">
    <mxGraphModel>
      <root>
        <mxCell id="0" />
        <mxCell id="1" parent="0" />
      </root>
    </mxGraphModel>
  </diagram>
</mxfile>
